<?xml version="1.0" encoding="UTF-8" standalone="no"?>
<svg
   xmlns:dc="http://purl.org/dc/elements/1.1/"
   xmlns:cc="http://creativecommons.org/ns#"
   xmlns:rdf="http://www.w3.org/1999/02/22-rdf-syntax-ns#"
   xmlns:svg="http://www.w3.org/2000/svg"
   xmlns="http://www.w3.org/2000/svg"
   version="1.1"
   id="svg25684"
   viewBox="0 0 153 167"
   height="47.131111mm"
   width="43.18mm">
  <defs
     id="defs25686" />
  <metadata
     id="metadata25689">
    <rdf:RDF>
      <cc:Work
         rdf:about="">
        <dc:format>image/svg+xml</dc:format>
        <dc:type
           rdf:resource="http://purl.org/dc/dcmitype/StillImage" />
        <dc:title></dc:title>
      </cc:Work>
    </rdf:RDF>
  </metadata>
  <g
     transform="translate(-6.3571253,-871.71936)"
     id="layer1">
    <rect
       id="rect11825"
       height="167"
       width="153"
       y="871.71936"
       x="6.3571253"
       style="fill:#d1d1d1" />
    <path
       id="path17893"
       d="m 45.200144,1002.7193 c 6.34,-20.659 19.702,-34.89595 35.158,-34.89595 15.458,0 28.819996,14.23795 35.156996,34.89595 l -70.314996,0 z"
       style="fill:#ededed" />
    <path
       id="path17895"
       d="m 106.06814,931.43935 c 0,-3.404 -2.762,-6.165 -6.167996,-6.165 -0.957,0 -1.866,0.219 -2.673,0.608 -0.11,-0.152 -0.223,-0.305 -0.336,-0.452 1.058,-1.108 1.712,-2.61 1.712,-4.264 0,-3.408 -2.764,-6.168 -6.169,-6.168 -2.383,0 -4.452,1.351 -5.479,3.332 -0.165,-0.057 -0.336,-0.11 -0.503,-0.162 0.043,-0.302 0.07,-0.611 0.07,-0.925 0,-3.408 -2.76,-6.169 -6.164,-6.169 -3.407,0 -6.166,2.762 -6.166,6.169 0,0.314 0.021,0.625 0.067,0.928 -0.167,0.051 -0.335,0.104 -0.501,0.161 -1.026,-1.979 -3.095,-3.334 -5.481,-3.334 -3.401,0 -6.166,2.76 -6.166,6.168 0,1.61 0.626,3.071 1.641,4.171 -0.133,0.16 -0.247,0.333 -0.375,0.498 -0.781,-0.357 -1.646,-0.562 -2.561,-0.562 -3.407,0 -6.17,2.761 -6.17,6.165 0,2.759 1.984,5.175 4.487,5.962 -0.196,1.168 -0.36,2.348 -0.36,3.572 0,11.922 9.663,21.58 21.585,21.58 11.917,0 21.579996,-9.658 21.579996,-21.58 0,-1.284 -0.163,-2.525 -0.377,-3.748 1.328,-0.936 4.507,-3.431 4.507,-5.785 z"
       style="fill:#ededed" />
  </g>
</svg>
