<?xml version="1.0" encoding="utf-8"?>
<!-- Generator: Adobe Illustrator 16.0.0, SVG Export Plug-In . SVG Version: 6.00 Build 0)  -->
<!DOCTYPE svg PUBLIC "-//W3C//DTD SVG 1.1//EN" "http://www.w3.org/Graphics/SVG/1.1/DTD/svg11.dtd">
<svg version="1.1" xmlns="http://www.w3.org/2000/svg" xmlns:xlink="http://www.w3.org/1999/xlink" x="0px" y="0px" width="20px"
	 height="20px" viewBox="0 0 20 20" enable-background="new 0 0 20 20" xml:space="preserve">
<g id="Capa_1">
</g>
<g id="Barra_final">
	<path d="M4.001,16.183c-0.105,0-0.192,0.001-0.279,0c-0.609-0.01-1.223,0.022-1.828-0.039c-1.041-0.106-1.865-1.063-1.89-2.124
		c-0.009-0.395-0.002-0.791-0.002-1.186c0-3.506-0.001-7.012,0-10.518c0-1.12,0.674-2.003,1.723-2.255
		c0.182-0.043,0.375-0.058,0.563-0.058C6.11,0,9.931-0.001,13.752,0.001c1.276,0.001,2.242,0.987,2.247,2.282
		c0.001,0.503,0,1.005,0,1.534c0.072,0,0.135,0,0.196,0c0.516,0,1.031-0.001,1.547,0c1.236,0.005,2.186,0.919,2.252,2.168
		c0.004,0.066,0.004,0.133,0.004,0.198c0,3.817-0.002,7.636,0.002,11.452c0.001,0.813-0.29,1.471-0.942,1.951
		c-0.369,0.271-0.788,0.41-1.245,0.41c-3.875,0.002-7.75,0.004-11.624-0.002c-1.149-0.002-2.104-0.913-2.172-2.071
		c-0.03-0.501-0.011-1.007-0.015-1.51C4.001,16.345,4.001,16.273,4.001,16.183z M4.001,14.372c0-0.09,0-0.173,0-0.255
		c0-2.625,0-5.25,0.001-7.875c0-0.186,0.003-0.373,0.035-0.555c0.197-1.118,1.102-1.868,2.253-1.87c2.571-0.002,5.143,0,7.713,0
		c0.069,0,0.138,0,0.204,0c0.007-0.041,0.013-0.058,0.013-0.075c0-0.485,0.003-0.971,0-1.457c-0.001-0.31-0.179-0.486-0.489-0.486
		c-3.821-0.001-7.643-0.001-11.464,0c-0.31,0-0.487,0.177-0.487,0.489c-0.001,3.866-0.001,7.731,0,11.596
		c0,0.319,0.179,0.498,0.499,0.499c0.521,0.003,1.042,0.001,1.564,0C3.889,14.384,3.935,14.377,4.001,14.372z"/>
</g>
</svg>
