<?xml version="1.0" encoding="utf-8"?>
<!-- Generator: Adobe Illustrator 16.0.0, SVG Export Plug-In . SVG Version: 6.00 Build 0)  -->
<!DOCTYPE svg PUBLIC "-//W3C//DTD SVG 1.1//EN" "http://www.w3.org/Graphics/SVG/1.1/DTD/svg11.dtd">
<svg version="1.1" id="Layer_1" xmlns="http://www.w3.org/2000/svg" xmlns:xlink="http://www.w3.org/1999/xlink" x="0px" y="0px"
	 width="65px" height="18px" viewBox="0 0 65 18" enable-background="new 0 0 65 18" xml:space="preserve">
<g id="Capa_1">
</g>
<path fill="#1C1C1B" d="M-53.625-85.458"/>
<g>
	<path fill="#1C1C1B" d="M26.919,16.225l-1.783-2.974l-0.05-0.037l0.025-0.022L21.306,2.725l-0.27-0.333l0.097-0.078l0.042,0.052
		l-0.029-0.079l1.851,0.065l0.014,0.041l1.449,4.228l-2.914-3.599L25.208,13.1l4.908-4.589l1.33-6.658h1.491l-1.383,5.486
		L31.54,7.351l-1.309,1.225l-1.46,7.313l-0.042,0.008L26.919,16.225z M25.395,13.443l1.586,2.642l1.585-0.289L25.395,13.443z
		 M25.28,13.204l3.397,2.521l1.398-7.003L25.28,13.204z M31.55,1.978l-1.276,6.387l1.168-1.092l1.335-5.295H31.55z M21.417,2.663
		l2.699,3.332l-1.207-3.521l-1.581-0.057L21.417,2.663z"/>
	
		<rect x="29.163" y="6.756" transform="matrix(0.8888 0.4582 -0.4582 0.8888 8.6247 -12.0879)" fill="#1C1C1B" width="0.124" height="9.95"/>
	
		<rect x="28.279" y="1.093" transform="matrix(0.873 0.4876 -0.4876 0.873 7.2858 -12.8606)" fill="#1C1C1B" width="0.124" height="12.938"/>
	<path fill="none" stroke="#1C1C1B" stroke-width="0.1246" stroke-miterlimit="10" d="M25.183,13.21"/>
	<polygon fill="#1C1C1B" points="29.275,12.479 26.081,11.566 25.584,10.279 24.229,6.327 24.347,6.288 25.702,10.236 
		26.175,11.466 29.309,12.357 	"/>
	
		<rect x="19.066" y="6.873" transform="matrix(0.4074 0.9132 -0.9132 0.4074 20.6052 -17.8841)" fill="#1C1C1B" width="10.035" height="0.125"/>
	<circle fill="#1C1C1B" cx="21.239" cy="2.353" r="0.299"/>
	<path fill="#1C1C1B" d="M25.48,13.225c0,0.166-0.134,0.301-0.297,0.301c-0.169,0-0.301-0.135-0.301-0.301
		c0-0.164,0.132-0.3,0.301-0.3C25.346,12.925,25.48,13.061,25.48,13.225z"/>
	<circle fill="#1C1C1B" cx="22.991" cy="2.353" r="0.322"/>
	<path fill="#1C1C1B" d="M31.748,7.403c0,0.18-0.143,0.322-0.324,0.322c-0.176,0-0.322-0.143-0.322-0.322
		c0-0.179,0.146-0.326,0.322-0.326C31.606,7.077,31.748,7.224,31.748,7.403z"/>
	<circle fill="#1C1C1B" cx="26.128" cy="11.435" r="0.324"/>
	<path fill="#1C1C1B" d="M31.726,1.915c0,0.166-0.134,0.301-0.302,0.301c-0.163,0-0.296-0.135-0.296-0.301s0.133-0.297,0.296-0.297
		C31.592,1.616,31.726,1.749,31.726,1.915z"/>
	<circle fill="#1C1C1B" cx="29.291" cy="12.418" r="0.3"/>
	<path fill="#1C1C1B" d="M33.18,2.026c0,0.18-0.146,0.325-0.322,0.325c-0.181,0-0.325-0.146-0.325-0.325
		c0-0.177,0.145-0.322,0.325-0.322C33.034,1.704,33.18,1.851,33.18,2.026z"/>
	<circle fill="#1C1C1B" cx="28.72" cy="15.831" r="0.324"/>
</g>
<rect x="0.502" y="1.313" fill="none" width="22.188" height="17.469"/>
<g enable-background="new    ">
	<path fill="#1C1C1B" d="M13.455,4.005L12.958,4.64c-1.15-1.071-2.718-1.706-4.364-1.706c-3.511,0-6.348,2.737-6.348,6.129
		c0,3.412,2.836,6.169,6.348,6.169c1.646,0,3.194-0.635,4.364-1.687l0.516,0.575c-1.289,1.189-3.055,1.924-4.899,1.924
		c-3.947,0-7.161-3.113-7.161-6.962c0-3.849,3.213-6.943,7.161-6.943C10.44,2.141,12.166,2.855,13.455,4.005z"/>
	<path fill="#1C1C1B" d="M16.822,16.025V2.161h0.834v13.866h-0.834V16.025z"/>
</g>
<rect x="33.316" y="1.313" fill="none" width="31.871" height="17.469"/>
<g enable-background="new    ">
	<path fill="#1C1C1B" d="M35.697,16.025V2.161h0.832v13.866h-0.832V16.025z"/>
	<path fill="#1C1C1B" d="M51.861,4.005L51.366,4.64c-1.15-1.071-2.718-1.706-4.363-1.706c-3.512,0-6.349,2.737-6.349,6.129
		c0,3.412,2.837,6.169,6.349,6.169c1.646,0,3.192-0.635,4.363-1.687l0.516,0.575c-1.289,1.189-3.055,1.924-4.897,1.924
		c-3.947,0-7.162-3.113-7.162-6.962c0-3.849,3.215-6.943,7.162-6.943C48.848,2.141,50.572,2.855,51.861,4.005z"/>
	<path fill="#1C1C1B" d="M62.887,3.252l-0.378,0.753c-1.03-0.674-2.438-1.012-3.629-1.012c-2.202,0-3.631,0.913-3.631,2.361
		c0,4.225,8.151,2.043,8.112,7.162c0,2.142-1.924,3.529-4.819,3.529c-1.845,0-3.729-0.813-4.938-2.003l0.438-0.733
		c1.131,1.17,2.895,1.885,4.521,1.885c2.381,0,3.908-1.031,3.908-2.658c0.038-4.344-8.113-2.122-8.113-7.121
		c0-2.004,1.826-3.293,4.563-3.293C60.327,2.121,61.854,2.577,62.887,3.252z"/>
</g>
</svg>
