<?xml version="1.0" encoding="UTF-8" standalone="no"?>
<!-- Created with Inkscape (http://www.inkscape.org/) -->

<svg
   xmlns:dc="http://purl.org/dc/elements/1.1/"
   xmlns:cc="http://creativecommons.org/ns#"
   xmlns:rdf="http://www.w3.org/1999/02/22-rdf-syntax-ns#"
   xmlns:svg="http://www.w3.org/2000/svg"
   xmlns="http://www.w3.org/2000/svg"
   xmlns:sodipodi="http://sodipodi.sourceforge.net/DTD/sodipodi-0.dtd"
   xmlns:inkscape="http://www.inkscape.org/namespaces/inkscape"
   width="31.159"
   height="29.997999"
   id="svg30431"
   version="1.1"
   inkscape:version="0.48.5 r10040"
   sodipodi:docname="Documento nuevo 5">
  <defs
     id="defs30433" />
  <sodipodi:namedview
     id="base"
     pagecolor="#ffffff"
     bordercolor="#666666"
     borderopacity="1.0"
     inkscape:pageopacity="0.0"
     inkscape:pageshadow="2"
     inkscape:zoom="0.35"
     inkscape:cx="-105.8491"
     inkscape:cy="169.28472"
     inkscape:document-units="px"
     inkscape:current-layer="layer1"
     showgrid="false"
     fit-margin-top="0"
     fit-margin-left="0"
     fit-margin-right="0"
     fit-margin-bottom="0"
     inkscape:window-width="419"
     inkscape:window-height="441"
     inkscape:window-x="0"
     inkscape:window-y="21"
     inkscape:window-maximized="0" />
  <metadata
     id="metadata30436">
    <rdf:RDF>
      <cc:Work
         rdf:about="">
        <dc:format>image/svg+xml</dc:format>
        <dc:type
           rdf:resource="http://purl.org/dc/dcmitype/StillImage" />
        <dc:title></dc:title>
      </cc:Work>
    </rdf:RDF>
  </metadata>
  <g
     inkscape:label="Capa 1"
     inkscape:groupmode="layer"
     id="layer1"
     transform="translate(-455.8491,-671.6489)">
    <g
       id="g30244"
       transform="translate(5181.7731,-4424.0411)">
      <path
         inkscape:connector-curvature="0"
         d="m -4703.171,5098.779 c 0,0.404 -0.01,0.783 0,1.162 0.018,1.201 1.029,2.184 2.246,2.186 1.218,0 2.228,-0.978 2.248,-2.183 0.01,-0.386 0,-0.772 0,-1.188 0.372,0 0.71,0 1.048,0 0.729,0 1.457,0 2.187,0 0.472,0 0.677,0.197 0.677,0.644 0,8.546 0,17.091 0,25.637 0,0.466 -0.2,0.651 -0.694,0.651 -9.923,0 -19.846,0 -29.768,0 -0.497,0 -0.697,-0.184 -0.697,-0.648 0,-8.546 0,-17.092 0,-25.637 0,-0.413 0.194,-0.64 0.588,-0.644 1.069,-0.01 2.139,0 3.207,0 0.027,0 0.055,0.014 0.121,0.031 0,0.407 -0.012,0.821 0,1.234 0.031,0.986 0.82,1.877 1.808,2.054 1.358,0.243 2.623,-0.724 2.677,-2.056 0.017,-0.406 0,-0.814 0,-1.244 4.782,0 9.545,0 14.345,0 z m 6.87,25.457 c 0,-6.619 0,-13.215 0,-19.813 -9.373,0 -18.726,0 -28.082,0 0,6.613 0,13.207 0,19.813 9.365,0 18.711,0 28.082,0 z"
         id="path30246" />
      <path
         inkscape:connector-curvature="0"
         d="m -4702.302,5098.485 c 0,-0.472 -0.01,-0.944 10e-4,-1.416 0.014,-0.771 0.62,-1.376 1.373,-1.379 0.755,0 1.372,0.595 1.383,1.368 0.013,0.953 0.012,1.906 0,2.86 -0.01,0.774 -0.62,1.378 -1.371,1.38 -0.763,0 -1.373,-0.609 -1.385,-1.396 -0.01,-0.472 -10e-4,-0.944 -10e-4,-1.417 z"
         id="path30248" />
      <path
         inkscape:connector-curvature="0"
         d="m -4718.383,5098.498 c 0,0.473 0.01,0.944 0,1.416 -0.013,0.772 -0.617,1.38 -1.368,1.385 -0.753,0.01 -1.376,-0.594 -1.387,-1.365 -0.013,-0.962 -0.013,-1.926 0,-2.888 0.012,-0.77 0.638,-1.364 1.395,-1.355 0.74,0.01 1.344,0.607 1.359,1.363 0.01,0.481 0,0.963 0,1.444 z"
         id="path30250" />
      <path
         style="fill:#ffffff"
         inkscape:connector-curvature="0"
         d="m -4696.301,5124.236 c -9.371,0 -18.717,0 -28.082,0 0,-6.605 0,-13.199 0,-19.813 9.356,0 18.709,0 28.082,0 0,6.598 0,13.194 0,19.813 z m -14.011,-18.545 c -3.722,0 -7.443,0 -11.165,0 -0.596,0 -0.762,0.157 -0.762,0.723 0,5.275 0,10.553 0,15.829 0,0.546 0.176,0.716 0.744,0.716 7.434,0 14.866,0 22.3,0 0.572,0 0.749,-0.169 0.749,-0.713 0,-5.276 0,-10.553 0,-15.83 0,-0.566 -0.166,-0.725 -0.76,-0.725 -3.701,0 -7.403,0 -11.106,0 z"
         id="path30252" />
      <path
         inkscape:connector-curvature="0"
         d="m -4710.312,5105.691 c 3.702,0 7.404,0 11.106,0 0.594,0 0.76,0.158 0.76,0.725 0,5.277 0,10.554 0,15.83 0,0.544 -0.177,0.713 -0.749,0.713 -7.434,0 -14.866,0 -22.3,0 -0.568,0 -0.744,-0.17 -0.744,-0.716 0,-5.276 0,-10.554 0,-15.829 0,-0.565 0.166,-0.723 0.762,-0.723 3.722,0 7.444,0 11.165,0 z m 5.078,16.207 c 0,-1.459 0,-2.889 0,-4.322 -1.525,0 -3.033,0 -4.535,0 0,1.455 0,2.886 0,4.322 1.518,0 3.012,0 4.535,0 z m -10.217,-0.01 c 1.518,0 3.02,0 4.537,0 0,-1.444 0,-2.881 0,-4.324 -1.525,0 -3.027,0 -4.537,0 0,1.448 0,2.878 0,4.324 z m 5.683,-9.744 c 0,1.466 0,2.9 0,4.333 1.527,0 3.027,0 4.525,0 0,-1.455 0,-2.891 0,-4.333 -1.517,0 -3.011,0 -4.525,0 z m -1.144,0.016 c -1.527,0 -3.034,0 -4.535,0 0,1.452 0,2.881 0,4.312 1.525,0 3.031,0 4.535,0 0,-1.456 0,-2.885 0,-4.312 z m -10.198,-0.011 c 0,1.456 0,2.892 0,4.326 1.521,0 3.021,0 4.521,0 0,-1.453 0,-2.883 0,-4.326 -1.512,0 -3.004,0 -4.521,0 z m 11.337,-5.394 c 0,1.45 0,2.879 0,4.315 1.521,0 3.022,0 4.54,0 0,-1.443 0,-2.872 0,-4.315 -1.514,0 -3.015,0 -4.54,0 z m -1.131,0.01 c -1.533,0 -3.041,0 -4.539,0 0,1.451 0,2.879 0,4.303 1.525,0 3.025,0 4.539,0 0,-1.442 0,-2.864 0,-4.303 z m 11.333,9.719 c 0,-1.453 0,-2.89 0,-4.326 -1.521,0 -3.021,0 -4.525,0 0,1.45 0,2.88 0,4.326 1.516,0 3.016,0 4.525,0 z m -17.017,1.083 c -1.528,0 -3.027,0 -4.529,0 0,1.45 0,2.88 0,4.322 1.516,0 3.015,0 4.529,0 0,-1.444 0,-2.873 0,-4.322 z m 17.025,4.327 c 0,-1.456 0,-2.886 0,-4.332 -1.515,0 -3.015,0 -4.528,0 0,1.45 0,2.886 0,4.332 1.513,0 3.005,0 4.528,0 z m -4.539,-10.828 c 1.533,0 3.033,0 4.53,0 0,-1.451 0,-2.881 0,-4.306 -1.522,0 -3.023,0 -4.53,0 0,1.443 0,2.866 0,4.306 z m -12.492,0.01 c 0,-1.461 0,-2.89 0,-4.315 -1.523,0 -3.023,0 -4.52,0 0,1.45 0,2.881 0,4.315 1.516,0 3.01,0 4.52,0 z"
         id="path30254" />
      <path
         style="fill:#ffffff"
         inkscape:connector-curvature="0"
         d="m -4705.234,5121.898 c -1.522,0 -3.017,0 -4.535,0 0,-1.437 0,-2.867 0,-4.322 1.502,0 3.01,0 4.535,0 0,1.434 0,2.863 0,4.322 z"
         id="path30256" />
      <path
         style="fill:#ffffff"
         inkscape:connector-curvature="0"
         d="m -4715.451,5121.893 c 0,-1.445 0,-2.876 0,-4.324 1.51,0 3.012,0 4.537,0 0,1.443 0,2.88 0,4.324 -1.518,0 -3.02,0 -4.537,0 z"
         id="path30258" />
      <path
         style="fill:#ffffff"
         inkscape:connector-curvature="0"
         d="m -4709.768,5112.149 c 1.514,0 3.008,0 4.525,0 0,1.442 0,2.878 0,4.333 -1.498,0 -2.998,0 -4.525,0 0,-1.432 0,-2.867 0,-4.333 z"
         id="path30260" />
      <path
         style="fill:#ffffff"
         inkscape:connector-curvature="0"
         d="m -4710.912,5112.165 c 0,1.427 0,2.856 0,4.312 -1.504,0 -3.01,0 -4.535,0 0,-1.431 0,-2.859 0,-4.312 1.501,0 3.008,0 4.535,0 z"
         id="path30262" />
      <path
         style="fill:#ffffff"
         inkscape:connector-curvature="0"
         d="m -4721.11,5112.154 c 1.518,0 3.01,0 4.521,0 0,1.443 0,2.873 0,4.326 -1.5,0 -2.999,0 -4.521,0 0,-1.434 0,-2.87 0,-4.326 z"
         id="path30264" />
      <path
         style="fill:#ffffff"
         inkscape:connector-curvature="0"
         d="m -4709.773,5106.76 c 1.525,0 3.026,0 4.54,0 0,1.443 0,2.872 0,4.315 -1.518,0 -3.019,0 -4.54,0 0,-1.436 0,-2.865 0,-4.315 z"
         id="path30266" />
      <path
         style="fill:#ffffff"
         inkscape:connector-curvature="0"
         d="m -4710.904,5106.768 c 0,1.439 0,2.861 0,4.303 -1.514,0 -3.014,0 -4.539,0 0,-1.424 0,-2.852 0,-4.303 1.498,0 3.005,0 4.539,0 z"
         id="path30268" />
      <path
         style="fill:#ffffff"
         inkscape:connector-curvature="0"
         d="m -4699.571,5116.487 c -1.509,0 -3.009,0 -4.525,0 0,-1.446 0,-2.876 0,-4.326 1.505,0 3.005,0 4.525,0 0,1.437 0,2.873 0,4.326 z"
         id="path30270" />
      <path
         style="fill:#ffffff"
         inkscape:connector-curvature="0"
         d="m -4716.588,5117.57 c 0,1.448 0,2.878 0,4.322 -1.515,0 -3.014,0 -4.529,0 0,-1.442 0,-2.872 0,-4.322 1.502,0 3.001,0 4.529,0 z"
         id="path30272" />
      <path
         style="fill:#ffffff"
         inkscape:connector-curvature="0"
         d="m -4699.563,5121.897 c -1.522,0 -3.015,0 -4.528,0 0,-1.446 0,-2.882 0,-4.332 1.514,0 3.014,0 4.528,0 0,1.447 0,2.876 0,4.332 z"
         id="path30274" />
      <path
         style="fill:#ffffff"
         inkscape:connector-curvature="0"
         d="m -4704.102,5111.069 c 0,-1.44 0,-2.863 0,-4.306 1.507,0 3.008,0 4.53,0 0,1.425 0,2.854 0,4.306 -1.496,0 -2.996,0 -4.53,0 z"
         id="path30276" />
      <path
         style="fill:#ffffff"
         inkscape:connector-curvature="0"
         d="m -4716.594,5111.079 c -1.51,0 -3.004,0 -4.52,0 0,-1.435 0,-2.865 0,-4.315 1.496,0 2.996,0 4.52,0 0,1.425 0,2.854 0,4.315 z"
         id="path30278" />
    </g>
  </g>
</svg>
