<?xml version="1.0" encoding="UTF-8" standalone="no"?>
<!-- Created with Inkscape (http://www.inkscape.org/) -->

<svg
   xmlns:dc="http://purl.org/dc/elements/1.1/"
   xmlns:cc="http://creativecommons.org/ns#"
   xmlns:rdf="http://www.w3.org/1999/02/22-rdf-syntax-ns#"
   xmlns:svg="http://www.w3.org/2000/svg"
   xmlns="http://www.w3.org/2000/svg"
   xmlns:sodipodi="http://sodipodi.sourceforge.net/DTD/sodipodi-0.dtd"
   xmlns:inkscape="http://www.inkscape.org/namespaces/inkscape"
   width="31.798187"
   height="29.994314"
   id="svg30361"
   version="1.1"
   inkscape:version="0.48.5 r10040"
   sodipodi:docname="Documento nuevo 2">
  <defs
     id="defs30363" />
  <sodipodi:namedview
     id="base"
     pagecolor="#ffffff"
     bordercolor="#666666"
     borderopacity="1.0"
     inkscape:pageopacity="0.0"
     inkscape:pageshadow="2"
     inkscape:zoom="2.8"
     inkscape:cx="15.947339"
     inkscape:cy="14.520769"
     inkscape:document-units="px"
     inkscape:current-layer="layer1"
     showgrid="false"
     fit-margin-top="0"
     fit-margin-left="0"
     fit-margin-right="0"
     fit-margin-bottom="0"
     inkscape:window-width="419"
     inkscape:window-height="441"
     inkscape:window-x="229"
     inkscape:window-y="156"
     inkscape:window-maximized="0" />
  <metadata
     id="metadata30366">
    <rdf:RDF>
      <cc:Work
         rdf:about="">
        <dc:format>image/svg+xml</dc:format>
        <dc:type
           rdf:resource="http://purl.org/dc/dcmitype/StillImage" />
        <dc:title></dc:title>
      </cc:Work>
    </rdf:RDF>
  </metadata>
  <g
     inkscape:label="Capa 1"
     inkscape:groupmode="layer"
     id="layer1"
     transform="translate(-421.2438,-534.50784)">
    <g
       id="g30234"
       transform="translate(5263.3958,-4562.1885)">
      <path
         inkscape:connector-curvature="0"
         d="m -4842.152,5113.678 c 0,-3.969 0,-7.938 0,-11.906 0,-0.694 0.21,-0.997 0.881,-1.265 3.028,-1.204 6.059,-2.404 9.084,-3.613 0.589,-0.235 1.155,-0.237 1.746,0 2.959,1.183 5.925,2.353 8.884,3.537 0.253,0.101 0.458,0.106 0.715,0 3.003,-1.202 6.01,-2.395 9.019,-3.583 0.197,-0.078 0.413,-0.144 0.623,-0.151 0.437,-0.017 0.768,0.297 0.832,0.753 0.02,0.136 0.013,0.274 0.013,0.412 10e-4,7.915 10e-4,15.829 10e-4,23.744 0,0.708 -0.218,1.02 -0.898,1.29 -3.007,1.193 -6.016,2.382 -9.019,3.585 -0.627,0.251 -1.218,0.253 -1.847,0 -2.957,-1.188 -5.923,-2.355 -8.883,-3.537 -0.215,-0.086 -0.391,-0.094 -0.611,-0.01 -2.992,1.195 -5.989,2.382 -8.985,3.57 -0.133,0.053 -0.267,0.108 -0.404,0.146 -0.57,0.153 -1.044,-0.136 -1.134,-0.696 -0.021,-0.135 -0.015,-0.274 -0.015,-0.412 0,-3.958 0,-7.915 0,-11.872 z m 1.445,11.382 c 0.157,-0.061 0.256,-0.099 0.354,-0.138 2.651,-1.053 5.302,-2.109 7.958,-3.15 0.273,-0.108 0.367,-0.234 0.367,-0.521 -0.01,-7.513 -0.01,-15.026 -0.01,-22.539 0,-0.11 0,-0.221 0,-0.37 -0.176,0.066 -0.309,0.113 -0.439,0.164 -2.618,1.04 -5.234,2.086 -7.857,3.112 -0.294,0.114 -0.383,0.247 -0.383,0.546 0.01,7.49 0.01,14.98 0.01,22.471 0,0.125 0,0.251 0,0.425 z m 10.135,-26.72 c -0.01,0.129 -0.017,0.217 -0.017,0.306 0,7.559 0,15.118 -0.01,22.677 0,0.233 0.077,0.335 0.302,0.424 2.678,1.052 5.351,2.115 8.024,3.176 0.106,0.043 0.215,0.079 0.34,0.125 0.01,-0.105 0.012,-0.174 0.012,-0.242 0,-7.582 0,-15.164 0.01,-22.746 0,-0.248 -0.108,-0.332 -0.317,-0.414 -1.934,-0.76 -3.863,-1.526 -5.794,-2.292 -0.841,-0.334 -1.681,-0.669 -2.55,-1.014 z m 18.771,0 c -0.168,0.063 -0.301,0.109 -0.43,0.16 -2.63,1.044 -5.257,2.094 -7.893,3.123 -0.287,0.113 -0.355,0.254 -0.355,0.529 0.01,7.501 0.01,15.003 0.01,22.504 0,0.12 0,0.24 0,0.398 0.158,-0.061 0.269,-0.101 0.377,-0.144 2.641,-1.048 5.279,-2.102 7.926,-3.136 0.297,-0.116 0.377,-0.257 0.376,-0.551 -0.01,-7.49 -0.01,-14.98 -0.01,-22.47 0,-0.122 0,-0.247 0,-0.413 z"
         id="path30236" />
      <path
         style="fill:#ffffff"
         inkscape:connector-curvature="0"
         d="m -4840.707,5125.06 c 0,-0.174 0,-0.3 0,-0.425 0,-7.49 0,-14.98 -0.01,-22.471 0,-0.299 0.089,-0.432 0.383,-0.546 2.623,-1.026 5.239,-2.072 7.857,-3.112 0.131,-0.051 0.264,-0.098 0.439,-0.164 0,0.149 0,0.26 0,0.37 0,7.513 0,15.026 0.01,22.539 0,0.286 -0.094,0.412 -0.367,0.521 -2.656,1.041 -5.307,2.098 -7.958,3.15 -0.098,0.039 -0.197,0.077 -0.354,0.138 z"
         id="path30238" />
      <path
         style="fill:#ffffff"
         inkscape:connector-curvature="0"
         d="m -4830.572,5098.34 c 0.869,0.345 1.709,0.68 2.55,1.013 1.931,0.766 3.86,1.532 5.794,2.292 0.209,0.082 0.318,0.166 0.317,0.414 -0.01,7.582 -0.01,15.164 -0.01,22.746 0,0.068 -0.01,0.137 -0.012,0.242 -0.125,-0.046 -0.233,-0.082 -0.34,-0.125 -2.674,-1.061 -5.347,-2.124 -8.024,-3.176 -0.225,-0.089 -0.302,-0.19 -0.302,-0.424 0.01,-7.559 0.01,-15.118 0.01,-22.677 0,-0.088 0.01,-0.176 0.017,-0.305 z"
         id="path30240" />
      <path
         style="fill:#ffffff"
         inkscape:connector-curvature="0"
         d="m -4811.801,5098.342 c 0,0.166 0,0.291 0,0.415 0,7.489 0,14.979 0.01,22.47 0,0.294 -0.079,0.435 -0.376,0.551 -2.646,1.034 -5.285,2.088 -7.926,3.136 -0.108,0.043 -0.219,0.083 -0.377,0.144 0,-0.158 0,-0.278 0,-0.398 0,-7.501 0,-15.003 -0.01,-22.504 0,-0.275 0.068,-0.416 0.355,-0.529 2.636,-1.029 5.263,-2.079 7.893,-3.123 0.129,-0.053 0.262,-0.1 0.43,-0.162 z"
         id="path30242" />
    </g>
  </g>
</svg>
